<svg role="img" width="48" height="48" viewBox="0 0 24 24" fill="#181717" xmlns="http://www.w3.org/2000/svg">
  <path d="M12 .297C5.373.297 0 5.67 0 12.297c0 5.302 3.438 9.8 8.207 11.385.6.113.82-.26.82-.577v-2.172c-3.338.725-4.033-1.61-4.033-1.61-.546-1.387-1.333-1.756-1.333-1.756-1.09-.745.082-.73.082-.73 1.205.085 1.838 1.24 1.838 1.24 1.07 1.834 2.807 1.303 3.49.997.11-.776.42-1.303.762-1.604-2.665-.304-5.467-1.333-5.467-5.93 0-1.31.468-2.38 1.236-3.22-.123-.303-.536-1.523.117-3.176 0 0 1.01-.323 3.31 1.231a11.525 11.525 0 0 1 3.012-.405c1.022.006 2.048.138 3.012.405 2.3-1.554 3.308-1.231 3.308-1.231.655 1.653.242 2.873.12 3.176.77.84 1.236 1.91 1.236 3.22 0 4.61-2.807 5.623-5.48 5.92.43.372.823 1.103.823 2.223v3.293c0 .319.22.694.825.576C20.565 22.094 24 17.597 24 12.297 24 5.67 18.627.297 12 .297z"/>
</svg>
