<svg role="img" width="48" height="48" viewBox="0 0 24 24" fill="#FFA116" xmlns="http://www.w3.org/2000/svg">
  <path d="M6.902 17.202l2.469 2.321a.77.77 0 0 1 .226.55v.84a.77.77 0 0 1-.774.776H1.54a.77.77 0 0 1-.772-.776v-5.841c0-.436.332-.781.774-.781h.902c.27 0 .505.107.71.319l2.468 2.318zM8.043 12L2.67 6.626a.766.766 0 0 1 0-1.089l1.664-1.66a.769.769 0 0 1 1.088 0l8.541 8.538c.145.147.327.22.544.22h4.764c.437 0 .772.33.772.777v2.345a.77.77 0 0 1-.772.777h-4.758a.802.802 0 0 0-.544.223l-8.547 8.544a.765.765 0 0 1-1.088 0l-1.665-1.666a.767.767 0 0 1 0-1.086L8.043 12zM19.881.301l1.89 1.876c.143.146.216.327.216.544 0 .22-.073.4-.216.547l-7.563 7.562c-.144.147-.324.22-.544.22a.77.77 0 0 1-.545-.22l-1.891-1.89a.77.77 0 0 1 0-1.086L18.795.301c.145-.145.324-.22.545-.22.215 0 .4.075.541.22z"/>
</svg>
