<svg role="img" width="48" height="48" viewBox="0 0 24 24" fill="#0A66C2" xmlns="http://www.w3.org/2000/svg">
  <path d="M20.45 2H3.55A1.54 1.54 0 0 0 2 3.54v16.91A1.54 1.54 0 0 0 3.55 22h16.9A1.54 1.54 0 0 0 22 20.45V3.54A1.54 1.54 0 0 0 20.45 2zM7.41 18H4.84V9h2.57zm-1.28-10a1.49 1.49 0 1 1 1.49-1.49A1.49 1.49 0 0 1 6.13 8zM19 18h-2.57v-4.62c0-1.1-.39-1.85-1.36-1.85a1.47 1.47 0 0 0-1.38 1c-.13.31-.16.72-.16 1.13V18h-2.56V9h2.56v1.21a2.52 2.52 0 0 1 2.26-1.23c1.66 0 2.91 1.08 2.91 3.42z"/>
</svg>
